<svg xmlns="http://www.w3.org/2000/svg" viewBox="0 0 1200 400" width="100%" height="100%" role="img" aria-labelledby="title-timeline"><title id="title-timeline">Blue Ridge timeline illustration — Carolina Futons company milestones winding through layered mountain scenery from 1991 to present</title><defs><linearGradient id="tl-sky" x1="0" y1="0" x2="0" y2="1"><stop offset="0%" stop-color="#B8D4E3"/><stop offset="14%" stop-color="#A8CCD8"/><stop offset="28%" stop-color="#B8D4E3" stop-opacity="0.75"/><stop offset="42%" stop-color="#F2E8D5"/><stop offset="56%" stop-color="#F2A882"/><stop offset="70%" stop-color="#F0C87A"/><stop offset="84%" stop-color="#E8D5B7"/><stop offset="100%" stop-color="#FAF7F2"/></linearGradient><linearGradient id="tl-haze-blue" x1="0" y1="0" x2="0" y2="1"><stop offset="0%" stop-color="#A8CCD8" stop-opacity="0.06"/><stop offset="50%" stop-color="#5B8FA8" stop-opacity="0.2"/><stop offset="100%" stop-color="#A8CCD8" stop-opacity="0.4"/></linearGradient><linearGradient id="tl-ground" x1="0" y1="0" x2="0" y2="1"><stop offset="0%" stop-color="#E8D5B7"/><stop offset="50%" stop-color="#D4BC96"/><stop offset="85%" stop-color="#5C4033"/><stop offset="100%" stop-color="#3A2518" stop-opacity="0.5"/></linearGradient><radialGradient id="tl-milestone-glow" cx="50%" cy="50%" r="50%"><stop offset="0%" stop-color="#E8845C" stop-opacity="0.55"/><stop offset="45%" stop-color="#F2A882" stop-opacity="0.25"/><stop offset="100%" stop-color="#E8845C" stop-opacity="0"/></radialGradient><radialGradient id="tl-sun-warmth" cx="80%" cy="25%" r="40%"><stop offset="0%" stop-color="#F0C87A" stop-opacity="0.5"/><stop offset="50%" stop-color="#F2A882" stop-opacity="0.2"/><stop offset="100%" stop-color="#F2E8D5" stop-opacity="0"/></radialGradient><linearGradient id="tl-ridge-far" x1="0" y1="0" x2="0" y2="1"><stop offset="0%" stop-color="#A8CCD8"/><stop offset="100%" stop-color="#B8D4E3" stop-opacity="0.4"/></linearGradient><linearGradient id="tl-ridge-mid" x1="0" y1="0" x2="0" y2="1"><stop offset="0%" stop-color="#5B8FA8"/><stop offset="100%" stop-color="#3D6B80" stop-opacity="0.65"/></linearGradient></defs><g><g id="background"><rect x="0" y="0" width="1200" height="400" fill="url(#tl-sky)"/><rect x="0" y="0" width="1200" height="400" fill="url(#tl-sun-warmth)"/><ellipse cx="140" cy="35" rx="55" ry="20" fill="#FAF7F2" opacity="0.5"/><ellipse cx="175" cy="28" rx="40" ry="14" fill="#F2E8D5" opacity="0.38"/><ellipse cx="480" cy="25" rx="62" ry="22" fill="#FAF7F2" opacity="0.44"/><ellipse cx="520" cy="20" rx="45" ry="15" fill="#FFFFFF" opacity="0.3"/><ellipse cx="880" cy="38" rx="58" ry="19" fill="#FAF7F2" opacity="0.42"/><ellipse cx="1060" cy="30" rx="48" ry="16" fill="#FAF7F2" opacity="0.35"/><path d="M1020 22 Q1028 14 1036 20 Q1044 10 1052 17 Q1056 8 1066 16 Q1060 24 1052 21 Q1045 27 1038 22 Q1030 28 1022 24Z" fill="#FAF7F2" opacity="0.42"/><line x1="290" y1="20" x2="298" y2="12" stroke="#3A2518" stroke-width="1.2" opacity="0.24"/><line x1="298" y1="12" x2="306" y2="20" stroke="#3A2518" stroke-width="1.2" opacity="0.24"/><line x1="316" y1="26" x2="323" y2="19" stroke="#3A2518" stroke-width="1" opacity="0.2"/><line x1="323" y1="19" x2="330" y2="26" stroke="#3A2518" stroke-width="1" opacity="0.2"/><line x1="680" y1="16" x2="687" y2="10" stroke="#3A2518" stroke-width="1.1" opacity="0.22"/><line x1="687" y1="10" x2="694" y2="16" stroke="#3A2518" stroke-width="1.1" opacity="0.22"/><line x1="1040" y1="46" x2="1046" y2="40" stroke="#3A2518" stroke-width="1.1" opacity="0.22"/><line x1="1046" y1="40" x2="1052" y2="46" stroke="#3A2518" stroke-width="1.1" opacity="0.22"/><line x1="390" y1="30" x2="395" y2="25" stroke="#3A2518" stroke-width="0.9" opacity="0.18"/><line x1="395" y1="25" x2="400" y2="30" stroke="#3A2518" stroke-width="0.9" opacity="0.18"/></g><g id="midground"><path id="mountain-ridge-far" d="M0 155 Q30 140 65 145 Q100 130 140 138 Q180 122 225 132 Q270 118 320 128 Q365 115 415 125 Q460 112 510 122 Q560 108 610 120 Q660 106 710 118 Q760 104 810 115 Q860 102 910 112 Q960 100 1010 110 Q1060 98 1110 108 Q1160 100 1200 105 L1200 210 L0 210Z" fill="url(#tl-ridge-far)" opacity="0.2"/><rect x="0" y="152" width="1200" height="42" fill="url(#tl-haze-blue)" opacity="0.5"/><path id="mountain-ridge-5" d="M0 172 Q35 155 78 162 Q122 145 172 155 Q222 138 278 148 Q332 132 388 145 Q442 128 500 140 Q558 125 618 138 Q678 122 738 135 Q798 118 858 132 Q918 115 978 128 Q1038 112 1098 125 Q1155 115 1200 120 L1200 228 L0 228Z" fill="#A8CCD8" opacity="0.28"/><rect x="0" y="170" width="1200" height="38" fill="url(#tl-haze-blue)" opacity="0.42"/><path id="mountain-ridge-4" d="M0 192 Q42 172 92 182 Q142 162 198 175 Q255 155 318 168 Q378 150 442 165 Q505 148 570 162 Q635 145 700 160 Q765 142 832 158 Q898 140 962 155 Q1028 138 1092 152 Q1150 142 1200 148 L1200 245 L0 245Z" fill="#5B8FA8" opacity="0.32"/><rect x="0" y="190" width="1200" height="35" fill="url(#tl-haze-blue)" opacity="0.35"/><path id="mountain-ridge-3" d="M0 212 Q48 192 105 202 Q162 182 228 195 Q295 175 365 190 Q435 172 508 188 Q580 168 655 185 Q728 165 802 180 Q878 162 952 178 Q1025 160 1098 175 Q1155 165 1200 170 L1200 260 L0 260Z" fill="url(#tl-ridge-mid)" opacity="0.38"/><rect x="0" y="210" width="1200" height="30" fill="url(#tl-haze-blue)" opacity="0.28"/><path id="mountain-ridge-2" d="M0 232 Q55 215 120 222 Q188 202 262 215 Q335 198 412 210 Q488 195 568 208 Q648 192 728 205 Q808 188 888 202 Q968 185 1048 198 Q1128 185 1200 192 L1200 275 L0 275Z" fill="#3D6B80" opacity="0.45"/><path id="mountain-ridge-near" d="M0 248 Q62 235 132 240 Q205 225 285 235 Q365 220 448 232 Q532 218 618 228 Q702 215 788 225 Q872 212 955 222 Q1038 210 1120 218 Q1165 212 1200 215 L1200 280 L0 280Z" fill="#3D6B80" opacity="0.5"/><path id="bird-flock-1" d="M175 68 L184 58 L193 68" fill="none" stroke="#3A2518" stroke-width="1.4" opacity="0.28"/><path id="bird-flock-2" d="M198 75 L206 66 L214 75" fill="none" stroke="#3A2518" stroke-width="1.1" opacity="0.22"/><path id="bird-flock-3" d="M840 58 L848 50 L856 58" fill="none" stroke="#3A2518" stroke-width="1.2" opacity="0.25"/><path id="bird-flock-4" d="M858 65 L865 58 L872 65" fill="none" stroke="#3A2518" stroke-width="0.9" opacity="0.2"/><path id="bird-flock-5" d="M555 48 L562 42 L569 48" fill="none" stroke="#3A2518" stroke-width="1" opacity="0.2"/><path id="tree-timeline-1" d="M38 262 L44 240 L46 234 L48 230 L50 226 L53 230 L56 236 L58 242 L64 262Z" fill="#4A7C59" opacity="0.5"/><path id="tree-timeline-2" d="M320 255 L325 235 L327 229 L329 225 L332 229 L335 236 L340 255Z" fill="#4A7C59" opacity="0.42"/><path id="tree-timeline-3" d="M715 250 L720 230 L722 224 L724 220 L727 224 L730 232 L735 250Z" fill="#4A7C59" opacity="0.45"/><path id="tree-timeline-4" d="M1080 258 L1085 238 L1087 232 L1089 228 L1092 232 L1095 240 L1100 258Z" fill="#4A7C59" opacity="0.38"/><path id="tree-timeline-5" d="M80 268 L84 252 L86 250 L89 252 L94 268Z" fill="#4A7C59" opacity="0.35"/><path id="tree-timeline-6" d="M1140 254 L1144 238 L1146 236 L1149 238 L1154 254Z" fill="#4A7C59" opacity="0.32"/><path id="tree-timeline-7" d="M180 260 L184 244 L186 242 L189 244 L193 260Z" fill="#4A7C59" opacity="0.3"/><path id="tree-timeline-8" d="M555 252 L559 236 L561 234 L564 236 L568 252Z" fill="#4A7C59" opacity="0.36"/></g><g id="foreground"><path d="M0 272 Q80 260 180 265 Q300 252 440 260 Q580 248 720 258 Q860 245 1000 255 Q1110 248 1200 252 L1200 400 L0 400Z" fill="url(#tl-ground)"/><path d="M40 300 Q100 290 170 296 Q260 284 350 292 Q450 278 550 288 Q650 275 750 285 Q850 272 950 282 Q1040 270 1140 278" fill="none" stroke="#3A2518" stroke-width="3.5" stroke-dasharray="12,8" opacity="0.45"/><path d="M45 306 Q105 296 175 302 Q265 290 355 298 Q455 284 555 294 Q655 281 755 291 Q855 278 955 288 Q1045 276 1145 284" fill="none" stroke="#5C4033" stroke-width="1.5" stroke-dasharray="6,10" opacity="0.25"/><g id="milestone-era-1991" transform="translate(120, 290)"><circle cx="0" cy="0" r="24" fill="url(#tl-milestone-glow)"/><circle cx="0" cy="0" r="12" fill="#E8845C" opacity="0.9"/><circle cx="0" cy="0" r="5" fill="#FAF7F2" opacity="0.88"/><rect x="-24" y="26" width="48" height="20" rx="5" fill="#3A2518" opacity="0.78"/><line x1="0" y1="-24" x2="0" y2="-40" stroke="#E8845C" stroke-width="1.5" opacity="0.35"/></g><g id="milestone-era-2005" transform="translate(420, 280)"><circle cx="0" cy="0" r="24" fill="url(#tl-milestone-glow)"/><circle cx="0" cy="0" r="12" fill="#5B8FA8" opacity="0.9"/><circle cx="0" cy="0" r="5" fill="#FAF7F2" opacity="0.88"/><rect x="-24" y="26" width="48" height="20" rx="5" fill="#3A2518" opacity="0.78"/><line x1="0" y1="-24" x2="0" y2="-40" stroke="#5B8FA8" stroke-width="1.5" opacity="0.35"/></g><g id="milestone-era-2015" transform="translate(720, 275)"><circle cx="0" cy="0" r="24" fill="url(#tl-milestone-glow)"/><circle cx="0" cy="0" r="12" fill="#E8845C" opacity="0.9"/><circle cx="0" cy="0" r="5" fill="#FAF7F2" opacity="0.88"/><rect x="-24" y="26" width="48" height="20" rx="5" fill="#3A2518" opacity="0.78"/><line x1="0" y1="-24" x2="0" y2="-40" stroke="#E8845C" stroke-width="1.5" opacity="0.35"/></g><g id="milestone-year-present" transform="translate(1020, 272)"><circle cx="0" cy="0" r="24" fill="url(#tl-milestone-glow)"/><circle cx="0" cy="0" r="12" fill="#4A7C59" opacity="0.9"/><circle cx="0" cy="0" r="5" fill="#FAF7F2" opacity="0.88"/><rect x="-24" y="26" width="48" height="20" rx="5" fill="#3A2518" opacity="0.78"/><line x1="0" y1="-24" x2="0" y2="-40" stroke="#4A7C59" stroke-width="1.5" opacity="0.35"/></g><path d="M20 365 Q45 352 68 360 Q88 348 112 356 Q132 344 155 354" fill="none" stroke="#F2A882" stroke-width="1.6" opacity="0.42"/><circle id="flower-tl-1" cx="35" cy="358" r="3.5" fill="#E8845C" opacity="0.55"/><circle id="flower-tl-2" cx="55" cy="355" r="2.8" fill="#F2A882" opacity="0.48"/><circle id="flower-tl-3" cx="78" cy="352" r="3" fill="#E8845C" opacity="0.5"/><circle id="flower-tl-4" cx="100" cy="350" r="2.5" fill="#F2A882" opacity="0.42"/><circle id="flower-tl-5" cx="125" cy="348" r="3" fill="#E8845C" opacity="0.45"/><circle id="flower-tl-6" cx="145" cy="350" r="2.5" fill="#F2A882" opacity="0.4"/><path d="M1040 360 Q1062 350 1082 358" fill="none" stroke="#F2A882" stroke-width="1.3" opacity="0.35"/><circle id="flower-tl-7" cx="1055" cy="355" r="2.5" fill="#E8845C" opacity="0.42"/><circle id="flower-tl-8" cx="1075" cy="352" r="3" fill="#F2A882" opacity="0.38"/><path d="M280 380 Q282 370 284 380 Q286 367 288 380 Q290 372 292 380" fill="none" stroke="#4A7C59" stroke-width="1.2" opacity="0.28"/><path d="M600 375 Q602 365 604 375 Q606 362 608 375" fill="none" stroke="#4A7C59" stroke-width="1" opacity="0.22"/><path d="M900 378 Q902 368 904 378 Q906 365 908 378" fill="none" stroke="#4A7C59" stroke-width="1.1" opacity="0.25"/></g></g></svg>