<svg viewBox="0 0 1920 800" preserveAspectRatio="xMidYMid slice" style="display: block; width: 100%; height: 100%;" xmlns="http://www.w3.org/2000/svg"><defs><linearGradient id="hr-sky" x1="0" y1="0" x2="0" y2="1"><stop offset="0%" stop-color="#F5C97A"/><stop offset="100%" stop-color="#E89F62"/></linearGradient><filter id="hr-grain"><feTurbulence type="fractalNoise" baseFrequency="0.7" numOctaves="3" seed="13"/><feColorMatrix values="0 0 0 0 0.18  0 0 0 0 0.10  0 0 0 0 0.06  0 0 0 0.18 0"/></filter></defs><rect width="1920" height="800" fill="url(#hr-sky)"/><circle cx="1504" cy="256" r="200" fill="#FAE8B0" opacity="0.4"/><circle cx="1504" cy="256" r="68" fill="#FAF2DE"/><path d="M 0 328 Q 480 308 960 318 T 1920 328 L 1920 800 L 0 800 Z" fill="#F0A862"/><path d="M 0 374 Q 480 344 960 359 T 1920 374 L 1920 800 L 0 800 Z" fill="#D87A3A"/><path d="M 0 414 Q 480 379 960 394 T 1920 414 L 1920 800 L 0 800 Z" fill="#A84818"/><path d="M 0 442 Q 480 402 960 417 T 1920 437 L 1920 800 L 0 800 Z" fill="#6B2818"/><path d="M 0 544 Q 480 504 960 519 T 1920 544 L 1920 800 L 0 800 Z" fill="#6B4818"/><g transform="translate(0 504)"><g transform="translate(120 0) scale(1.4)"><rect x="-3" y="0" width="6" height="14" fill="#3A1808"/><polygon points="0,-60 -22,-30 22,-30" fill="#A84818"/><polygon points="0,-40 -24,-10 24,-10" fill="#D87A3A"/><polygon points="0,-18 -26,12 26,12" fill="#F0A862"/></g><g transform="translate(260 0) scale(1.7999999999999998)"><rect x="-3" y="0" width="6" height="14" fill="#3A1808"/><polygon points="0,-60 -22,-30 22,-30" fill="#A84818"/><polygon points="0,-40 -24,-10 24,-10" fill="#D87A3A"/><polygon points="0,-18 -26,12 26,12" fill="#F0A862"/></g><g transform="translate(1640 0) scale(1.4)"><rect x="-3" y="0" width="6" height="14" fill="#3A1808"/><polygon points="0,-60 -22,-30 22,-30" fill="#A84818"/><polygon points="0,-40 -24,-10 24,-10" fill="#D87A3A"/><polygon points="0,-18 -26,12 26,12" fill="#F0A862"/></g><g transform="translate(1780 0) scale(1.7999999999999998)"><rect x="-3" y="0" width="6" height="14" fill="#3A1808"/><polygon points="0,-60 -22,-30 22,-30" fill="#A84818"/><polygon points="0,-40 -24,-10 24,-10" fill="#D87A3A"/><polygon points="0,-18 -26,12 26,12" fill="#F0A862"/></g></g><g transform="translate(960 606)"><ellipse cx="0" cy="40" rx="180" ry="14" fill="#3A1808" opacity="0.4"/><rect x="-140" y="-10" width="280" height="50" fill="#5B3A2A" stroke="#3A1808" stroke-width="3" rx="4"/><ellipse cx="0" cy="-10" rx="140" ry="18" fill="#FAF2DE"/><g stroke="#3A1808" stroke-width="0.8" fill="none" opacity="0.4"><ellipse cx="0" cy="-10" rx="90" ry="12"/><ellipse cx="0" cy="-10" rx="50" ry="6"/></g><g transform="translate(0 -90) scale(2)"><g transform="scale(1 1)"><ellipse cx="0" cy="62" rx="48" ry="6" fill="#2A1810" opacity="0.18"/><ellipse cx="0" cy="30" rx="38" ry="34" fill="#2A1810"/><ellipse cx="0" cy="40" rx="22" ry="20" fill="#4A2818" opacity="0.6"/><ellipse cx="-22" cy="55" rx="14" ry="10" fill="#2A1810"/><ellipse cx="22" cy="55" rx="14" ry="10" fill="#2A1810"/><ellipse cx="-22" cy="58" rx="8" ry="4" fill="#A8806A" opacity="0.5"/><ellipse cx="22" cy="58" rx="8" ry="4" fill="#A8806A" opacity="0.5"/><ellipse cx="-30" cy="20" rx="10" ry="22" fill="#2A1810" transform="rotate(-15 -30 20)"/><ellipse cx="30" cy="20" rx="10" ry="22" fill="#2A1810" transform="rotate(15 30 20)"/><ellipse cx="0" cy="-12" rx="28" ry="26" fill="#2A1810"/><circle cx="-22" cy="-30" r="9" fill="#2A1810"/><circle cx="22" cy="-30" r="9" fill="#2A1810"/><circle cx="-22" cy="-30" r="5" fill="#A8806A" opacity="0.7"/><circle cx="22" cy="-30" r="5" fill="#A8806A" opacity="0.7"/><ellipse cx="0" cy="-2" rx="14" ry="11" fill="#A8806A"/><ellipse cx="0" cy="-8" rx="4" ry="3" fill="#1A0E08"/><path d="M -4 -3 Q 0 0 4 -3" fill="none" stroke="#1A0E08" stroke-width="1.5" stroke-linecap="round"/><circle cx="-11" cy="-14.8" r="2.8" fill="#1A0E08"/><circle cx="11" cy="-14.8" r="2.8" fill="#1A0E08"/><circle cx="-10" cy="-15.8" r="0.8" fill="#FAF2DE"/><circle cx="12" cy="-15.8" r="0.8" fill="#FAF2DE"/></g></g><g transform="translate(0 -30)"><ellipse cx="0" cy="6" rx="60" ry="6" fill="#3A1808" opacity="0.3"/><path d="M -56 -28 Q 0 -34 56 -28 L 56 4 Q 0 -2 -56 4 Z" fill="#FAF2DE" stroke="#3A1808" stroke-width="2.5"/><line x1="0" y1="-31" x2="0" y2="2" stroke="#3A1808" stroke-width="2"/><g stroke="#3A1808" stroke-width="1.2" opacity="0.5" stroke-linecap="round"><line x1="-48" y1="-22" x2="-8" y2="-23"/><line x1="-48" y1="-15" x2="-12" y2="-16"/><line x1="-48" y1="-8" x2="-10" y2="-9"/><line x1="8" y1="-23" x2="48" y2="-22"/><line x1="12" y1="-16" x2="48" y2="-15"/><line x1="10" y1="-9" x2="48" y2="-8"/></g></g></g><g transform="translate(-22.51710536140587 327.94799999980927) rotate(1604.8049999992847) scale(0.6)"><path d="M 0 -8 Q 8 -8 8 0 Q 8 8 0 8 Q -8 8 -8 0 Q -8 -8 0 -8 Z" fill="#D87A3A"/><line x1="0" y1="0" x2="0" y2="-8" stroke="#3A2518" stroke-width="0.6" opacity="0.6"/></g><g transform="translate(125.22118758989626 528.9219999997139) rotate(1627.8049999992847) scale(0.8999999999999999)"><path d="M 0 -10 L 4 -2 L 10 0 L 4 2 L 0 10 L -4 2 L -10 0 L -4 -2 Z" fill="#E8B848"/><line x1="0" y1="0" x2="0" y2="-8" stroke="#3A2518" stroke-width="0.6" opacity="0.6"/></g><g transform="translate(261.72337703194194 729.8959999996185) rotate(1650.8049999992847) scale(1.2)"><ellipse rx="9" ry="4" fill="#B8523A"/><line x1="0" y1="0" x2="0" y2="-8" stroke="#3A2518" stroke-width="0.6" opacity="0.6"/></g><g transform="translate(381.93077536636105 -69.13000000047691) rotate(1673.8049999992847) scale(1.5)"><ellipse rx="9" ry="4" fill="#8B3818"/><line x1="0" y1="0" x2="0" y2="-8" stroke="#3A2518" stroke-width="0.6" opacity="0.6"/></g><g transform="translate(495.76605079185606 131.84399999942775) rotate(1696.8049999992847) scale(0.6)"><path d="M 0 -8 Q 8 -8 8 0 Q 8 8 0 8 Q -8 8 -8 0 Q -8 -8 0 -8 Z" fill="#D87A3A"/><line x1="0" y1="0" x2="0" y2="-8" stroke="#3A2518" stroke-width="0.6" opacity="0.6"/></g><g transform="translate(619.0103719230437 262.94799999980927) rotate(1719.8049999992847) scale(0.8999999999999999)"><path d="M 0 -10 L 4 -2 L 10 0 L 4 2 L 0 10 L -4 2 L -10 0 L -4 -2 Z" fill="#E8B848"/><line x1="0" y1="0" x2="0" y2="-8" stroke="#3A2518" stroke-width="0.6" opacity="0.6"/></g><g transform="translate(758.7942741447646 463.9219999997139) rotate(1742.8049999992847) scale(1.2)"><ellipse rx="9" ry="4" fill="#B8523A"/><line x1="0" y1="0" x2="0" y2="-8" stroke="#3A2518" stroke-width="0.6" opacity="0.6"/></g><g transform="translate(907.041878263409 664.8959999996185) rotate(1765.8049999992847) scale(1.5)"><ellipse rx="9" ry="4" fill="#8B3818"/><line x1="0" y1="0" x2="0" y2="-8" stroke="#3A2518" stroke-width="0.6" opacity="0.6"/></g><g transform="translate(1047.895816593697 865.8699999995231) rotate(1788.8049999992847) scale(0.6)"><path d="M 0 -8 Q 8 -8 8 0 Q 8 8 0 8 Q -8 8 -8 0 Q -8 -8 0 -8 Z" fill="#D87A3A"/><line x1="0" y1="0" x2="0" y2="-8" stroke="#3A2518" stroke-width="0.6" opacity="0.6"/></g><g transform="translate(1172.2964236785265 66.84399999942775) rotate(1811.8049999992847) scale(0.8999999999999999)"><path d="M 0 -10 L 4 -2 L 10 0 L 4 2 L 0 10 L -4 2 L -10 0 L -4 -2 Z" fill="#E8B848"/><line x1="0" y1="0" x2="0" y2="-8" stroke="#3A2518" stroke-width="0.6" opacity="0.6"/></g><g transform="translate(1286.3111509294458 197.94799999980927) rotate(1834.8049999992847) scale(1.2)"><ellipse rx="9" ry="4" fill="#B8523A"/><line x1="0" y1="0" x2="0" y2="-8" stroke="#3A2518" stroke-width="0.6" opacity="0.6"/></g><g transform="translate(1405.556179780361 398.9219999997139) rotate(1857.8049999992847) scale(1.5)"><ellipse rx="9" ry="4" fill="#8B3818"/><line x1="0" y1="0" x2="0" y2="-8" stroke="#3A2518" stroke-width="0.6" opacity="0.6"/></g><g transform="translate(1540.8389764949136 199.89599999961865) rotate(1880.8049999992847) scale(0.6)"><path d="M 0 -8 Q 8 -8 8 0 Q 8 8 0 8 Q -8 8 -8 0 Q -8 -8 0 -8 Z" fill="#D87A3A"/><line x1="0" y1="0" x2="0" y2="-8" stroke="#3A2518" stroke-width="0.6" opacity="0.6"/></g><g transform="translate(1688.2219575248732 400.8699999995231) rotate(1903.8049999992847) scale(0.8999999999999999)"><path d="M 0 -10 L 4 -2 L 10 0 L 4 2 L 0 10 L -4 2 L -10 0 L -4 -2 Z" fill="#E8B848"/><line x1="0" y1="0" x2="0" y2="-8" stroke="#3A2518" stroke-width="0.6" opacity="0.6"/></g><g transform="translate(1832.6426856652827 601.8439999994278) rotate(1926.8049999992847) scale(1.2)"><ellipse rx="9" ry="4" fill="#B8523A"/><line x1="0" y1="0" x2="0" y2="-8" stroke="#3A2518" stroke-width="0.6" opacity="0.6"/></g><g transform="translate(41.7622053567086 732.9479999998093) rotate(1949.8049999992847) scale(1.5)"><ellipse rx="9" ry="4" fill="#8B3818"/><line x1="0" y1="0" x2="0" y2="-8" stroke="#3A2518" stroke-width="0.6" opacity="0.6"/></g><g transform="translate(157.30942152257458 -66.07800000028601) rotate(1972.8049999992847) scale(0.6)"><path d="M 0 -8 Q 8 -8 8 0 Q 8 8 0 8 Q -8 8 -8 0 Q -8 -8 0 -8 Z" fill="#D87A3A"/><line x1="0" y1="0" x2="0" y2="-8" stroke="#3A2518" stroke-width="0.6" opacity="0.6"/></g><g transform="translate(273.49155235581964 134.89599999961865) rotate(1995.8049999992847) scale(0.8999999999999999)"><path d="M 0 -10 L 4 -2 L 10 0 L 4 2 L 0 10 L -4 2 L -10 0 L -4 -2 Z" fill="#E8B848"/><line x1="0" y1="0" x2="0" y2="-8" stroke="#3A2518" stroke-width="0.6" opacity="0.6"/></g><g transform="translate(403.93207843225355 335.8699999995231) rotate(2018.8049999992847) scale(1.2)"><ellipse rx="9" ry="4" fill="#B8523A"/><line x1="0" y1="0" x2="0" y2="-8" stroke="#3A2518" stroke-width="0.6" opacity="0.6"/></g><g transform="translate(549.1453774970566 536.8439999994278) rotate(2041.8049999992847) scale(1.5)"><ellipse rx="9" ry="4" fill="#8B3818"/><line x1="0" y1="0" x2="0" y2="-8" stroke="#3A2518" stroke-width="0.6" opacity="0.6"/></g><g transform="translate(696.063807938036 667.9479999998093) rotate(2064.8049999992845) scale(0.6)"><path d="M 0 -8 Q 8 -8 8 0 Q 8 8 0 8 Q -8 8 -8 0 Q -8 -8 0 -8 Z" fill="#D87A3A"/><line x1="0" y1="0" x2="0" y2="-8" stroke="#3A2518" stroke-width="0.6" opacity="0.6"/></g><g transform="translate(830.0520382193583 868.9219999997139) rotate(2087.8049999992845) scale(0.8999999999999999)"><path d="M 0 -10 L 4 -2 L 10 0 L 4 2 L 0 10 L -4 2 L -10 0 L -4 -2 Z" fill="#E8B848"/><line x1="0" y1="0" x2="0" y2="-8" stroke="#3A2518" stroke-width="0.6" opacity="0.6"/></g><g transform="translate(948.3627032013059 69.89599999961865) rotate(2110.8049999992845) scale(1.2)"><ellipse rx="9" ry="4" fill="#B8523A"/><line x1="0" y1="0" x2="0" y2="-8" stroke="#3A2518" stroke-width="0.6" opacity="0.6"/></g><g transform="translate(1062.6623189796094 870.8699999995231) rotate(2133.8049999992845) scale(1.5)"><ellipse rx="9" ry="4" fill="#8B3818"/><line x1="0" y1="0" x2="0" y2="-8" stroke="#3A2518" stroke-width="0.6" opacity="0.6"/></g><g transform="translate(1188.305141789929 71.84399999942798) rotate(2156.8049999992845) scale(0.6)"><path d="M 0 -8 Q 8 -8 8 0 Q 8 8 0 8 Q -8 8 -8 0 Q -8 -8 0 -8 Z" fill="#D87A3A"/><line x1="0" y1="0" x2="0" y2="-8" stroke="#3A2518" stroke-width="0.6" opacity="0.6"/></g><g transform="translate(1330.2165356345681 202.94799999980933) rotate(2179.8049999992845) scale(0.8999999999999999)"><path d="M 0 -10 L 4 -2 L 10 0 L 4 2 L 0 10 L -4 2 L -10 0 L -4 -2 Z" fill="#E8B848"/><line x1="0" y1="0" x2="0" y2="-8" stroke="#3A2518" stroke-width="0.6" opacity="0.6"/></g><g transform="translate(1478.3646153332368 403.921999999714) rotate(2202.8049999992845) scale(1.2)"><ellipse rx="9" ry="4" fill="#B8523A"/><line x1="0" y1="0" x2="0" y2="-8" stroke="#3A2518" stroke-width="0.6" opacity="0.6"/></g><g transform="translate(1616.9835154934 604.8959999996187) rotate(2225.8049999992845) scale(1.5)"><ellipse rx="9" ry="4" fill="#8B3818"/><line x1="0" y1="0" x2="0" y2="-8" stroke="#3A2518" stroke-width="0.6" opacity="0.6"/></g><g transform="translate(1739.0684544441622 805.8699999995231) rotate(2248.8049999992845) scale(0.6)"><path d="M 0 -8 Q 8 -8 8 0 Q 8 8 0 8 Q -8 8 -8 0 Q -8 -8 0 -8 Z" fill="#D87A3A"/><line x1="0" y1="0" x2="0" y2="-8" stroke="#3A2518" stroke-width="0.6" opacity="0.6"/></g><g transform="translate(1852.815898200282 6.843999999427979) rotate(2271.8049999992845) scale(0.8999999999999999)"><path d="M 0 -10 L 4 -2 L 10 0 L 4 2 L 0 10 L -4 2 L -10 0 L -4 -2 Z" fill="#E8B848"/><line x1="0" y1="0" x2="0" y2="-8" stroke="#3A2518" stroke-width="0.6" opacity="0.6"/></g><g transform="translate(54.087767408143336 137.94799999980933) rotate(2294.8049999992845) scale(1.2)"><ellipse rx="9" ry="4" fill="#B8523A"/><line x1="0" y1="0" x2="0" y2="-8" stroke="#3A2518" stroke-width="0.6" opacity="0.6"/></g><g transform="translate(191.82806065446482 338.921999999714) rotate(2317.8049999992845) scale(1.5)"><ellipse rx="9" ry="4" fill="#8B3818"/><line x1="0" y1="0" x2="0" y2="-8" stroke="#3A2518" stroke-width="0.6" opacity="0.6"/></g><g transform="translate(339.8397834130334 539.8959999996187) rotate(2340.8049999992845) scale(0.6)"><path d="M 0 -8 Q 8 -8 8 0 Q 8 8 0 8 Q -8 8 -8 0 Q -8 -8 0 -8 Z" fill="#D87A3A"/><line x1="0" y1="0" x2="0" y2="-8" stroke="#3A2518" stroke-width="0.6" opacity="0.6"/></g><g transform="translate(482.4824362332001 740.8699999995231) rotate(2363.8049999992845) scale(0.8999999999999999)"><path d="M 0 -10 L 4 -2 L 10 0 L 4 2 L 0 10 L -4 2 L -10 0 L -4 -2 Z" fill="#E8B848"/><line x1="0" y1="0" x2="0" y2="-8" stroke="#3A2518" stroke-width="0.6" opacity="0.6"/></g><g transform="translate(609.0518178049481 541.843999999428) rotate(2386.8049999992845) scale(1.2)"><ellipse rx="9" ry="4" fill="#B8523A"/><line x1="0" y1="0" x2="0" y2="-8" stroke="#3A2518" stroke-width="0.6" opacity="0.6"/></g><g transform="translate(723.6214182783684 672.9479999998093) rotate(2409.8049999992845) scale(1.5)"><ellipse rx="9" ry="4" fill="#8B3818"/><line x1="0" y1="0" x2="0" y2="-8" stroke="#3A2518" stroke-width="0.6" opacity="0.6"/></g><g transform="translate(841.297271205529 873.921999999714) rotate(2432.8049999992845) scale(0.6)"><path d="M 0 -8 Q 8 -8 8 0 Q 8 8 0 8 Q -8 8 -8 0 Q -8 -8 0 -8 Z" fill="#D87A3A"/><line x1="0" y1="0" x2="0" y2="-8" stroke="#3A2518" stroke-width="0.6" opacity="0.6"/></g><g transform="translate(974.3295359577459 74.89599999961865) rotate(2455.8049999992845) scale(0.8999999999999999)"><path d="M 0 -10 L 4 -2 L 10 0 L 4 2 L 0 10 L -4 2 L -10 0 L -4 -2 Z" fill="#E8B848"/><line x1="0" y1="0" x2="0" y2="-8" stroke="#3A2518" stroke-width="0.6" opacity="0.6"/></g><g transform="translate(1120.8497576941 275.8699999995233) rotate(2478.8049999992845) scale(1.2)"><ellipse rx="9" ry="4" fill="#B8523A"/><line x1="0" y1="0" x2="0" y2="-8" stroke="#3A2518" stroke-width="0.6" opacity="0.6"/></g><g transform="translate(1266.5887161253568 476.843999999428) rotate(2501.8049999992845) scale(1.5)"><ellipse rx="9" ry="4" fill="#8B3818"/><line x1="0" y1="0" x2="0" y2="-8" stroke="#3A2518" stroke-width="0.6" opacity="0.6"/></g><rect width="1920" height="800" filter="url(#hr-grain)" opacity="0.4" style="mix-blend-mode: multiply;"/></svg>