<svg viewBox="0 0 1920 800" preserveAspectRatio="xMidYMid slice" style="display: block; width: 100%; height: 100%;" xmlns="http://www.w3.org/2000/svg"><defs><linearGradient id="hrv-sky" x1="0" y1="0" x2="0" y2="1"><stop offset="0%" stop-color="#C8DCE5"/><stop offset="100%" stop-color="#E8DCC8"/></linearGradient><linearGradient id="hrv-water" x1="0" y1="0" x2="0" y2="1"><stop offset="0%" stop-color="#8BB5C9"/><stop offset="100%" stop-color="#5B8FA8"/></linearGradient><linearGradient id="hrv-fall" x1="0" y1="0" x2="0" y2="1"><stop offset="0%" stop-color="#FAF2DE"/><stop offset="100%" stop-color="#8BB5C9"/></linearGradient><filter id="hrv-grain"><feTurbulence type="fractalNoise" baseFrequency="0.7" numOctaves="3" seed="17"/><feColorMatrix values="0 0 0 0 0.18  0 0 0 0 0.10  0 0 0 0 0.06  0 0 0 0.18 0"/></filter></defs><rect width="1920" height="800" fill="url(#hrv-sky)"/><circle cx="1518" cy="204" r="60" fill="#FAE8B0" opacity="0.6"/><path d="M 0 268 L 400 168 L 600 248 L 900 148 L 1100 228 L 1400 168 L 1600 248 L 1920 208 L 1920 800 L 0 800 Z" fill="#8FA868" opacity="0.6"/><path d="M 0 330 L 500 230 L 800 310 L 1200 220 L 1500 300 L 1920 260 L 1920 800 L 0 800 Z" fill="#6B8A4A"/><g transform="translate(0 -72)"><path d="M 600 280 L 600 580 L 1320 580 L 1320 280 L 1180 200 L 740 200 Z" fill="#2F3F2F"/><path d="M 600 280 L 740 200 L 1180 200 L 1320 280" fill="none" stroke="#4A5A3A" stroke-width="3"/><rect x="820" y="200" width="280" height="380" fill="url(#hrv-fall)" opacity="0.95"/><g stroke="#FAF2DE" stroke-width="1.2" fill="none" opacity="0.7"><line x1="840" y1="219.73999999904618" x2="842" y2="579.7399999990462"/><line x1="880" y1="219.73999999904618" x2="882" y2="579.7399999990462"/><line x1="920" y1="219.73999999904618" x2="922" y2="579.7399999990462"/><line x1="960" y1="219.73999999904618" x2="962" y2="579.7399999990462"/><line x1="1000" y1="219.73999999904618" x2="1002" y2="579.7399999990462"/><line x1="1040" y1="219.73999999904618" x2="1042" y2="579.7399999990462"/><line x1="1080" y1="219.73999999904618" x2="1082" y2="579.7399999990462"/></g><ellipse cx="960" cy="200" rx="140" ry="8" fill="#FAF2DE"/><ellipse cx="960" cy="200" rx="100" ry="4" fill="#FFFFFF" opacity="0.7"/><ellipse cx="960" cy="600" rx="240" ry="40" fill="#FAF2DE" opacity="0.7"/><ellipse cx="960" cy="585" rx="180" ry="20" fill="#FAF2DE" opacity="0.5"/></g><rect x="0" y="508" width="1920" height="220" fill="url(#hrv-water)"/><g stroke="#FAF2DE" stroke-width="1.5" fill="none" opacity="0.5"><path d="M 0 548 q 240 -3.70974340656975 480 0 t 480 0 t 480 0 t 480 0"/><path d="M 0 588 q 240 -0.7456019879356175 480 0 t 480 0 t 480 0 t 480 0"/><path d="M 0 628 q 240 2.904042459886784 480 0 t 480 0 t 480 0 t 480 0"/><path d="M 0 668 q 240 3.8837236627672453 480 0 t 480 0 t 480 0 t 480 0"/></g><g transform="translate(286 580)"><ellipse cx="0" cy="80" rx="240" ry="20" fill="#3A332D" opacity="0.5"/><path d="M -200 60 Q -180 -20 -100 -60 Q 0 -100 100 -70 Q 200 -30 220 60 Z" fill="#5B5048"/><path d="M -180 30 Q -160 -10 -100 -40 Q -50 -60 0 -50 Q 60 -40 80 -10" fill="none" stroke="#8B7E72" stroke-width="1.5" opacity="0.6"/><path d="M -160 -40 Q -100 -78 0 -90 Q 80 -82 140 -50 Q 100 -60 60 -68 Q 0 -78 -60 -70 Q -120 -60 -160 -40 Z" fill="#3A5A2A"/><ellipse cx="-80" cy="-78" rx="14" ry="4" fill="#8FA868" opacity="0.8"/><ellipse cx="40" cy="-82" rx="18" ry="4" fill="#8FA868" opacity="0.8"/><g transform="translate(0 -90) scale(2)"><g transform="scale(1 1)"><ellipse cx="0" cy="62" rx="48" ry="6" fill="#2A1810" opacity="0.18"/><ellipse cx="0" cy="30" rx="38" ry="34" fill="#2A1810"/><ellipse cx="0" cy="40" rx="22" ry="20" fill="#4A2818" opacity="0.6"/><ellipse cx="-22" cy="55" rx="14" ry="10" fill="#2A1810"/><ellipse cx="22" cy="55" rx="14" ry="10" fill="#2A1810"/><ellipse cx="-22" cy="58" rx="8" ry="4" fill="#A8806A" opacity="0.5"/><ellipse cx="22" cy="58" rx="8" ry="4" fill="#A8806A" opacity="0.5"/><ellipse cx="-30" cy="20" rx="10" ry="22" fill="#2A1810" transform="rotate(-15 -30 20)"/><ellipse cx="30" cy="20" rx="10" ry="22" fill="#2A1810" transform="rotate(15 30 20)"/><ellipse cx="0" cy="-12" rx="28" ry="26" fill="#2A1810"/><circle cx="-22" cy="-30" r="9" fill="#2A1810"/><circle cx="22" cy="-30" r="9" fill="#2A1810"/><circle cx="-22" cy="-30" r="5" fill="#A8806A" opacity="0.7"/><circle cx="22" cy="-30" r="5" fill="#A8806A" opacity="0.7"/><ellipse cx="0" cy="-2" rx="14" ry="11" fill="#A8806A"/><ellipse cx="0" cy="-8" rx="4" ry="3" fill="#1A0E08"/><path d="M -4 -3 Q 0 0 4 -3" fill="none" stroke="#1A0E08" stroke-width="1.5" stroke-linecap="round"/><circle cx="-10" cy="-15.5" r="2.8" fill="#1A0E08"/><circle cx="12" cy="-15.5" r="2.8" fill="#1A0E08"/><circle cx="-9" cy="-16.5" r="0.8" fill="#FAF2DE"/><circle cx="13" cy="-16.5" r="0.8" fill="#FAF2DE"/></g></g></g><g transform="translate(1494 632)"><ellipse cx="0" cy="40" rx="120" ry="10" fill="#3A332D" opacity="0.5"/><path d="M -100 30 Q -80 -20 0 -40 Q 80 -30 100 30 Z" fill="#5B5048"/><path d="M -80 -20 Q 0 -50 80 -20 Q 40 -32 0 -36 Q -40 -32 -80 -20 Z" fill="#3A5A2A"/></g><g transform="translate(0 660)"><g transform="translate(140 30)"><ellipse rx="36" ry="10" fill="#6B8A4A"/><path d="M -32 0 L 0 -2" stroke="#1F2A1F" stroke-width="1"/></g><g transform="translate(680 50)"><ellipse rx="44" ry="12" fill="#6B8A4A"/><circle cx="-8" cy="-8" r="4"/></g><g transform="translate(1240 40)"><ellipse rx="40" ry="11" fill="#6B8A4A"/></g><g transform="translate(1680 60)"><ellipse rx="36" ry="10" fill="#6B8A4A"/></g></g><rect width="1920" height="800" filter="url(#hrv-grain)" opacity="0.35" style="mix-blend-mode: multiply;"/></svg>